<svg xmlns="http://www.w3.org/2000/svg" viewBox="0 0 657.86 682"><defs><style>.cls-1{fill:#fff;}</style></defs><g id="Layer_2" data-name="Layer 2"><g id="Layer_1-2" data-name="Layer 1"><path class="cls-1" d="M615.94,169.73Q574,93.38,501,46.69T330.2,0Q235,0,160,46A328.65,328.65,0,0,0,42.55,169Q0,245.92,0,338,0,408.81,24.77,470.8A346.05,346.05,0,0,0,94,580.19a322.93,322.93,0,0,0,105.41,74.62Q260.34,682,331.47,682q64.75,0,121.28-21T551.17,602q41.91-38.09,62.24-85.09l-74.93-20.31q-22.87,53.34-80.65,86.36T335.28,616q-63.51,0-117.48-32.18t-87.63-87.13Q96.51,441.71,90.17,371H367.24V308.77H87.62q5.07-70.41,38.74-125.13t87-85.53Q266.7,67.32,331.47,67.3T450.2,98.11q54,30.83,87.64,84.89t38.74,125.77h-148V371h228q1.27-5,1.27-14.5V336.92Q657.86,246.08,615.94,169.73Z"/><polygon class="cls-1" points="234.1 501.81 234.1 358.64 367.24 358.64 367.24 309.3 234.1 309.3 234.1 180.48 482.55 180.48 482.55 130.85 178.45 130.85 178.45 551.44 492.31 551.44 492.31 501.81 234.1 501.81"/><rect class="cls-1" x="428.6" y="309.3" width="38.17" height="49.35"/></g></g></svg>